<svg width="32" height="32" viewBox="0 0 32 32" fill="none" xmlns="http://www.w3.org/2000/svg">
<rect width="32" height="32" fill="white"/>
<path d="M5.62754 16.9155C8.06285 16.9993 10.3495 16.707 12.5693 17.4534C14.0778 17.9601 15.3535 18.8605 16.6007 19.8233C17.6668 20.6457 18.7596 21.4232 20.0964 21.7292C22.1636 22.2028 23.9335 21.552 25.4877 20.1897C25.7909 19.9246 26.0483 19.7472 26.4621 19.7725C27.0571 19.8095 27.6561 19.7824 28.4189 19.7824C27.8525 20.4859 27.4138 21.1426 26.8703 21.6864C25.2856 23.2669 23.3613 24.0659 21.1434 23.9957C19.3107 23.9373 17.7069 23.1928 16.2137 22.1268C15.0523 21.2965 13.8641 20.4937 12.636 19.7765C11.774 19.2737 10.7918 19.0924 9.78302 19.1197C8.86765 19.1431 7.95029 19.1099 7.03492 19.1275C6.78706 19.1314 6.64414 19.0494 6.54307 18.837C6.25893 18.2348 5.97271 17.6386 5.62754 16.9155Z" fill="#50713A"/>
<path d="M13.2844 11.8737C13.355 11.8211 13.5171 11.8132 13.5876 11.86C14.133 12.2322 14.6689 12.6222 15.2487 13.0392C13.9805 14.0585 12.6321 14.7814 11.0703 14.8711C9.23189 14.9763 7.38388 14.9451 5.54168 14.9704C5.36438 14.9724 5.18707 14.9704 5.01929 14.9704C4.3461 17.9152 6.37139 21.053 9.31016 21.7157C10.6813 22.0255 11.9705 21.8949 13.1986 21.1738C13.2997 21.1134 13.5152 21.1525 13.6239 21.2265C14.1598 21.591 14.6766 21.9827 15.2297 22.3881C14.1465 23.232 12.9468 23.7055 11.65 23.9082C8.08004 24.4617 4.93337 22.3666 3.57746 19.3848C3.52214 19.262 3.32381 19.1373 3.18841 19.1334C2.27306 19.11 1.35771 19.11 0.442366 19.1237C0.1201 19.1295 -0.0173115 19.0398 0.00173213 18.6833C0.0265235 18.1512 0.00564366 17.6152 0.00564308 17.013H2.89472V14.8983H0.0361857V12.8969C0.230677 12.8871 0.419529 12.8716 0.608302 12.8716C3.671 12.8696 6.73372 12.891 9.79642 12.8578C11.0284 12.8442 12.2413 12.6493 13.2844 11.8737Z" fill="#50713A"/>
<path d="M19.8599 8.18428C22.2437 7.71654 24.4044 8.2702 26.3038 9.80982C27.1944 10.5309 27.9115 11.4176 28.3768 12.4856C28.5103 12.7935 28.6763 12.8812 28.9852 12.8754C29.8415 12.8578 30.6978 12.8832 31.5521 12.8657C31.8744 12.8598 32.0174 12.9397 31.9983 13.2983C31.9716 13.8011 31.9907 14.3079 31.9907 14.8711H29.134V17.0109C29.8053 17.0109 30.5033 17.0071 31.2012 17.013C32.0841 17.0188 31.9868 16.8921 31.9925 17.8217C31.9945 18.2173 31.9925 18.6149 31.9925 19.1041C31.203 19.1041 30.4574 19.1119 29.7117 19.1022C28.0774 19.0827 26.4412 19.0398 24.8068 19.0378C23.6512 19.0378 22.4955 19.0691 21.3417 19.1315C20.4569 19.1782 19.6426 19.5018 18.9389 20.0494C18.6624 20.2638 18.4811 20.2324 18.2389 20.0395C17.7888 19.6829 17.3236 19.3477 16.8354 18.9813C17.7698 18.0439 18.853 17.4651 20.0869 17.2098C20.6685 17.0889 21.2712 17.0286 21.8643 17.0208C23.5749 16.9955 25.2856 17.013 27.0534 17.013C27.1793 16.1594 27.1811 15.3329 27.0018 14.5085C26.3877 11.6807 23.5597 10.1236 21.5706 10.184C20.598 10.2132 19.6673 10.3379 18.8091 10.8349C18.729 10.8817 18.5688 10.8778 18.4983 10.8252C17.9491 10.4081 17.4113 9.97352 16.8354 9.51749C17.7736 8.8081 18.7824 8.39476 19.8599 8.18428Z" fill="#50713A"/>
<path d="M7.11128 8.81577C9.96994 7.46713 12.699 7.85497 15.3021 9.50569C16.3052 10.141 17.2339 10.8993 18.1988 11.597C19.3888 12.4564 20.7353 12.8228 22.1694 12.8657C23.1286 12.8949 24.0917 12.8813 25.0528 12.8637C25.2931 12.8599 25.4457 12.9242 25.5467 13.1464C25.8061 13.7213 26.0711 14.2923 26.3762 14.9529C26.0845 14.9685 25.9434 14.9822 25.8004 14.9822C24.7496 14.9842 23.6969 14.9452 22.648 14.99C20.5579 15.0797 18.7118 14.378 16.9916 13.2457C15.8589 12.5013 14.789 11.6438 13.6066 10.9948C11.1237 9.63252 8.53773 9.9988 6.3885 11.8678C6.22451 12.01 5.97283 12.1056 5.75735 12.1154C5.09562 12.1466 4.43381 12.127 3.69199 12.127C4.57305 10.6614 5.62951 9.51347 7.11128 8.81577Z" fill="#50713A"/>
</svg>
