<svg width="168" height="82" viewBox="0 0 168 82" fill="none" xmlns="http://www.w3.org/2000/svg">
<path d="M29.5446 45.6921C42.3299 46.1216 54.3348 44.6232 65.9888 48.4486C73.9082 51.0456 80.606 55.6603 87.1538 60.5944C92.7505 64.8093 98.4876 68.7939 105.506 70.3621C116.359 72.7892 125.651 69.4538 133.81 62.472C135.402 61.1137 136.754 60.2042 138.926 60.3339C142.05 60.5237 145.194 60.3847 149.199 60.3847C146.226 63.9903 143.923 67.356 141.069 70.1426C132.749 78.243 122.647 82.3378 111.003 81.9782C101.381 81.6786 92.9615 77.8632 85.1221 72.3997C79.0248 68.1448 72.7865 64.0301 66.3388 60.3544C61.8134 57.7776 56.6571 56.8485 51.3608 56.9883C46.5551 57.1081 41.739 56.9384 36.9333 57.0283C35.6321 57.0482 34.8817 56.6284 34.3511 55.5398C32.8594 52.4536 31.3567 49.3976 29.5446 45.6921Z" fill="#50713A"/>
<path d="M69.7433 19.8527C70.1137 19.5831 70.9645 19.5428 71.335 19.7824C74.1985 21.6902 77.0118 23.6886 80.0555 25.826C73.3975 31.0497 66.3187 34.7549 58.119 35.2143C48.4674 35.7537 38.7654 35.5936 29.0938 35.7235C28.163 35.7335 27.2321 35.7235 26.3513 35.7235C22.817 50.8156 33.4498 66.8969 48.8784 70.2928C56.0769 71.8809 62.8449 71.2114 69.2925 67.5159C69.8232 67.2063 70.955 67.4065 71.5257 67.7861C74.3389 69.6538 77.0524 71.6615 79.9557 73.739C74.2689 78.0638 67.9708 80.4908 61.1626 81.5295C42.4202 84.3661 25.9002 73.6289 18.7816 58.347C18.4913 57.7178 17.45 57.0785 16.7392 57.0585C11.9336 56.9387 7.128 56.9389 2.32242 57.0088C0.630524 57.0387 -0.0908852 56.5792 0.00909369 54.7517C0.139248 52.025 0.0296292 49.2778 0.0296262 46.1915H15.1973V35.3538H0.189975V25.0964C1.21106 25.0465 2.20253 24.9667 3.19358 24.9667C19.2728 24.9567 35.352 25.0663 51.4312 24.8965C57.899 24.8266 64.2667 23.8279 69.7433 19.8527Z" fill="#50713A"/>
<path d="M104.264 0.944411C116.779 -1.45274 128.123 1.38475 138.095 9.27535C142.77 12.9709 146.535 17.5152 148.978 22.9886C149.679 24.5667 150.55 25.0162 152.172 24.9862C156.668 24.8963 161.163 25.0264 165.649 24.9365C167.34 24.9065 168.091 25.316 167.991 27.1536C167.851 29.7305 167.951 32.3277 167.951 35.2143H152.954V46.1808C156.478 46.1808 160.142 46.1616 163.806 46.1915C168.442 46.2215 167.931 45.5721 167.961 50.336C167.971 52.3636 167.961 54.4014 167.961 56.9083C163.816 56.9083 159.901 56.9485 155.987 56.8986C147.406 56.7987 138.816 56.5789 130.236 56.5689C124.169 56.5689 118.101 56.7292 112.044 57.0488C107.399 57.2885 103.124 58.9465 99.4293 61.7532C97.9776 62.8519 97.0255 62.6913 95.754 61.7024C93.3913 59.8748 90.9487 58.1568 88.3858 56.2792C93.2916 51.475 98.9784 48.5085 105.456 47.2001C108.51 46.5808 111.674 46.2715 114.788 46.2315C123.768 46.1017 132.749 46.1915 142.03 46.1915C142.691 41.8167 142.701 37.5812 141.759 33.3562C138.535 18.8637 123.688 10.8835 113.246 11.193C108.14 11.3428 103.253 11.9819 98.7478 14.5289C98.3273 14.7685 97.4864 14.7487 97.116 14.4791C94.2326 12.3417 91.4093 10.1143 88.3858 7.77713C93.3116 4.14151 98.6076 2.02315 104.264 0.944411Z" fill="#50713A"/>
<path d="M37.3342 4.18081C52.3422 -2.73093 66.6697 -0.743294 80.3361 7.71665C85.6023 10.9728 90.4778 14.8587 95.5438 18.4344C101.791 22.8392 108.86 24.7167 116.389 24.9365C121.425 25.0863 126.481 25.0166 131.527 24.9267C132.789 24.9067 133.59 25.2366 134.12 26.3752C135.482 29.3215 136.873 32.248 138.475 35.6337C136.944 35.7136 136.203 35.784 135.452 35.784C129.935 35.7939 124.409 35.5942 118.902 35.8239C107.929 36.2833 98.2369 32.6874 89.2061 26.8844C83.259 23.0689 77.6421 18.6742 71.4348 15.3482C58.3992 8.36664 44.8231 10.2439 33.5396 19.8224C32.6787 20.5515 31.3573 21.0414 30.2261 21.0914C26.752 21.2512 23.2775 21.1509 19.383 21.1509C24.0085 13.6399 29.5549 7.75654 37.3342 4.18081Z" fill="#50713A"/>
</svg>
